<svg xmlns="http://www.w3.org/2000/svg" viewBox="0 0 100 100">
  <path d="M86.61,0H13.39C5.99,0,0,5.99,0,13.39v73.22c0,7.39,5.99,13.39,13.39,13.39h73.22c7.39,0,13.39-5.99,13.39-13.39V13.39c0-7.39-5.99-13.39-13.39-13.39ZM78.76,85.48s-13.49-.34-19.16-.34h-25.58l-15.26.34v-3.86l4.95-1.09c3.58-.72,4.64-1.77,4.64-4.61,0,0,.38-9.59.38-25.58s-.38-25.55-.38-25.55c0-3.18-1.06-3.89-4.64-4.61l-4.95-1.05v-3.89l14.92.31h28.41c5.67,0,15.23-1.02,15.23-1.02,0,0-.34,6.01-.72,20.22h-3.89l-1.43-4.99c-1.4-6.39-3.52-9.56-7.44-9.56h-22.33c-1.81,0-1.81.35-1.81,1.44v26.26s9.25,0,14.21-.38c3.89-.68,4.61-1.06,5.33-4.95l1.43-5.7h4.24l-.72,12.47.38,12.77h-4.27l-1.06-4.99c-1.06-3.55-2.49-4.27-5.33-4.61-3.55-.38-14.21-.38-14.21-.38v22.03c0,4.24,2.15,6.05,7.1,6.05h14.92c4.61,0,9.22-.38,12.09-7.1l3.86-8.54h3.58c-.38,1.77-2.15,17.41-2.49,20.93Z"/>
</svg>