<svg  xmlns="http://www.w3.org/2000/svg" viewBox="0 0 167.13 33.44">
  <g fill="currentColor">
    <path  d="M15.9,31.3c-1.91,1.77-4.5,2.14-6.95,2.14s-4.77-.32-6.68-1.86c-.95-.77-1.41-1.54-1.59-2C.14,28.44,0,27.08,0,25.89V7.9C0,7.22-.13,4,2,2.09,3.18,1.04,5.41,0,9,0c4.63,0,7.09,1.91,8.04,3.77.5,1.04.73,2.04.73,4.27v17.85c0,2.04-.32,3.91-1.86,5.41ZM11.81,8.45c0-.18.14-1.64-.36-2.59-.27-.59-.95-1.41-2.45-1.41-.32,0-1.18.05-1.91.59-1.32.91-1.14,2.32-1.14,3.63v16.22c0,.95-.05,2.14.55,2.95.68.95,2.14.95,2.41.95s1.14-.05,1.86-.55c1.09-.77,1.04-2.04,1.04-3.23V8.45Z"/>
    <path  d="M30.61,32.75l-5.68-24.03.5,24.03h-5.54V.68h7.59l5.77,23.53-.59-23.53h5.41v32.07h-7.45Z"/>
    <path  d="M40.18,32.75V.68h15.54v4.86h-9.63v7.54h9.09v4.86h-9.09v9.86h10.09v4.95h-15.99Z"/>
    <path  d="M68.5,5.63v8.04h9.18v4.77h-9.18v14.31h-5.95V.68h15.72v4.95h-9.77Z"/>
    <path  d="M96.29,31.3c-1.91,1.77-4.5,2.14-6.95,2.14s-4.77-.32-6.68-1.86c-.95-.77-1.41-1.54-1.59-2-.55-1.14-.68-2.5-.68-3.68V7.9c0-.68-.14-3.91,2-5.81,1.18-1.04,3.41-2.09,7-2.09,4.63,0,7.09,1.91,8.04,3.77.5,1.04.73,2.04.73,4.27v17.85c0,2.04-.32,3.91-1.86,5.41ZM92.2,8.45c0-.18.14-1.64-.36-2.59-.27-.59-.95-1.41-2.45-1.41-.32,0-1.18.05-1.91.59-1.32.91-1.14,2.32-1.14,3.63v16.22c0,.95-.05,2.14.55,2.95.68.95,2.14.95,2.41.95s1.14-.05,1.86-.55c1.09-.77,1.04-2.04,1.04-3.23V8.45Z"/>
    <path  d="M112.15,32.75l-3.77-11.13-3.82,11.13h-6.41l7.09-17.08-6.31-14.99h6.45l3.04,9.04,3.09-9.04h6.45l-6.41,15.17,7.09,16.9h-6.5Z"/>
    <path  d="M123.48,19.38V.68h3.44v15.87h5.06v2.83h-8.5Z"/>
    <path  d="M140.78,19.38l-.45-3.05h-3.18l-.5,3.05h-3.44l3.63-18.7h3.95l3.5,18.7h-3.5ZM138.82,5.42l-1.24,8.03h2.38l-1.14-8.03Z"/>
    <path  d="M151.88,19.38l-3.31-14.01.29,14.01h-3.23V.68h4.42l3.36,13.72-.34-13.72h3.15v18.7h-4.34Z"/>
    <path  d="M157.81,19.38V.68h9.06v2.83h-5.62v4.4h5.3v2.83h-5.3v5.75h5.88v2.89h-9.32Z"/>
    <rect  x="123.48" y="23.84" width="43.65" height="4.46"/>
  </g>
</svg>