<?xml version="1.0" encoding="UTF-8"?>
<svg id="Layer_2" data-name="Layer 2" xmlns="http://www.w3.org/2000/svg" viewBox="0 0 903.04 903.04">
  <defs>
    <style>
      .cls-1 {
        fill: none;
      }
    </style>
  </defs>
  <g id="Layer_1-2" data-name="Layer 1">
    <path d="M174.19,88.85c-47.13,0-85.33,38.21-85.33,85.33v439.04l349.01-349.01c-5.13-22.1-7.7-44.72-7.68-67.41,0-38.83,8.53-75.52,25.17-107.95H174.19M728.85,814.19c47.13,0,85.33-38.21,85.33-85.33v-304.64c-32.43,48.64-72.11,100.27-115.63,155.31l-33.71,42.67-33.28-42.67c-56.75-70.4-106.67-135.68-142.08-195.84-14.51-24.75-26.88-49.07-36.69-73.81l-173.65,173.65,330.67,330.67h119.04M88.85,728.85c0,47.13,38.21,85.33,85.33,85.33h375.04l-300.37-300.37-160,160v55.04M664.85,558.19c111.36-143.79,192-251.73,192-359.68S771.52,3.52,664.85,3.52s-192,87.47-192,194.99,79.79,215.89,192,359.68M750.19,195.52c0,47.13-38.21,85.33-85.33,85.33s-85.33-38.21-85.33-85.33,38.21-85.33,85.33-85.33c47.13,0,85.33,38.21,85.33,85.33Z"/>
    <rect class="cls-1" width="903.04" height="903.04"/>
  </g>
</svg>