<?xml version="1.0" encoding="UTF-8"?>
<svg id="Layer_2" data-name="Layer 2" xmlns="http://www.w3.org/2000/svg" viewBox="0 0 34.44 34.44">
  <defs>
    <style>
      .cls-1 {
        fill: #f2f1df;
      }
    </style>
  </defs>
  <g id="Layer_1-2" data-name="Layer 1">
    <path id="instagram" class="cls-1" d="M17.22,3.1c4.6,0,5.14.02,6.96.1,1.68.08,2.59.36,3.2.59.8.31,1.38.69,1.98,1.29.6.6.98,1.18,1.29,1.98.24.61.52,1.52.59,3.2.08,1.82.1,2.36.1,6.96s-.02,5.14-.1,6.96c-.08,1.68-.36,2.59-.59,3.2-.31.8-.69,1.38-1.29,1.98s-1.18.98-1.98,1.29c-.61.24-1.52.52-3.2.59-1.82.08-2.36.1-6.96.1s-5.14-.02-6.96-.1c-1.68-.08-2.59-.36-3.2-.59-.8-.31-1.38-.69-1.98-1.29-.6-.6-.98-1.18-1.29-1.98-.24-.61-.52-1.52-.59-3.2-.08-1.82-.1-2.36-.1-6.96s.02-5.14.1-6.96c.08-1.68.36-2.59.59-3.2.31-.8.69-1.38,1.29-1.98s1.18-.98,1.98-1.29c.61-.24,1.52-.52,3.2-.59,1.82-.08,2.36-.1,6.96-.1M17.22,0c-4.68,0-5.26.02-7.1.1-1.83.08-3.08.37-4.18.8-1.13.44-2.09,1.03-3.05,1.99-.96.96-1.55,1.92-1.99,3.05-.43,1.1-.72,2.35-.8,4.18-.08,1.84-.1,2.42-.1,7.1s.02,5.26.1,7.1c.08,1.83.37,3.08.8,4.18.44,1.13,1.03,2.09,1.99,3.05.96.96,1.92,1.55,3.05,1.99,1.1.43,2.35.72,4.18.8,1.84.08,2.42.1,7.1.1s5.26-.02,7.1-.1c1.83-.08,3.08-.37,4.18-.8,1.13-.44,2.09-1.03,3.05-1.99.96-.96,1.55-1.92,1.99-3.05.43-1.1.72-2.35.8-4.18.08-1.84.1-2.42.1-7.1s-.02-5.26-.1-7.1c-.08-1.83-.37-3.08-.8-4.18-.44-1.13-1.03-2.09-1.99-3.05-.96-.96-1.92-1.55-3.05-1.99-1.1-.43-2.35-.72-4.18-.8-1.84-.08-2.42-.1-7.1-.1h0ZM17.22,8.38c-4.88,0-8.84,3.96-8.84,8.84s3.96,8.84,8.84,8.84,8.84-3.96,8.84-8.84-3.96-8.84-8.84-8.84ZM17.22,22.96c-3.17,0-5.74-2.57-5.74-5.74s2.57-5.74,5.74-5.74,5.74,2.57,5.74,5.74-2.57,5.74-5.74,5.74ZM26.41,5.96c-1.14,0-2.07.93-2.07,2.07s.93,2.07,2.07,2.07,2.07-.93,2.07-2.07-.93-2.07-2.07-2.07Z"/>
  </g>
</svg>