<?xml version="1.0" encoding="UTF-8"?>
<svg id="Layer_2" data-name="Layer 2" xmlns="http://www.w3.org/2000/svg" viewBox="0 0 100 100">
  <g id="Layer_1-2" data-name="Layer 1">
    <path d="M0,0v100h100V0H0ZM40.46,32.24l-12.5,37.5c-.43,1.28-1.62,2.14-2.96,2.14-1.73,0-3.13-1.4-3.12-3.13,0-.33.05-.66.16-.98l12.5-37.5c.55-1.64,2.32-2.52,3.96-1.97,1.63.55,2.51,2.31,1.97,3.94ZM59.21,32.24l-12.5,37.5c-.43,1.28-1.62,2.14-2.96,2.14-1.73,0-3.13-1.4-3.12-3.13,0-.33.05-.66.16-.98l12.5-37.5c.55-1.64,2.32-2.52,3.95-1.98s2.52,2.32,1.98,3.95ZM77.96,32.24l-12.5,37.5c-.43,1.28-1.62,2.14-2.96,2.14-1.73,0-3.13-1.4-3.12-3.13,0-.33.05-.66.16-.98l12.5-37.5c.55-1.64,2.32-2.52,3.96-1.97,1.63.55,2.51,2.31,1.97,3.94Z"/>
  </g>
</svg>